<?xml version="1.0" encoding="UTF-8" standalone="no"?><!DOCTYPE svg PUBLIC "-//W3C//DTD SVG 1.1//EN" "http://www.w3.org/Graphics/SVG/1.1/DTD/svg11.dtd"><svg width="100%" height="100%" viewBox="0 0 512 512" version="1.1" xmlns="http://www.w3.org/2000/svg" xmlns:xlink="http://www.w3.org/1999/xlink" xml:space="preserve" xmlns:serif="http://www.serif.com/" style="fill-rule:evenodd;clip-rule:evenodd;stroke-linejoin:round;stroke-miterlimit:2;"><path d="M184.48,63.741c1.733,-0.003 3.465,-0.006 5.198,-0.011c4.674,-0.009 9.347,-0.006 14.021,0.001c4.913,0.005 9.826,0 14.738,-0.003c8.25,-0.004 16.499,0.001 24.749,0.011c9.507,0.011 19.013,0.007 28.52,-0.004c8.192,-0.009 16.385,-0.01 24.577,-0.005c4.88,0.003 9.759,0.004 14.639,-0.003c4.592,-0.006 9.183,-0.002 13.775,0.01c1.674,0.003 3.349,0.002 5.023,-0.003c12.779,-0.031 25.549,0.312 37.655,4.89c0.704,0.259 1.408,0.519 2.134,0.786c31.722,12.037 55.892,34.127 70.168,64.956c2.922,6.644 4.871,13.522 6.323,20.633c0.177,0.83 0.355,1.661 0.537,2.517c1.578,8.213 1.803,16.254 1.778,24.585c-0.003,2.291 0.021,4.58 0.046,6.871c0.002,1.475 0.003,2.951 0.002,4.426c0.004,1.975 0.004,1.975 0.009,3.99c-0.54,5.243 -2.1,8.461 -5.997,11.987c-4.277,2.059 -7.71,2.625 -12.375,1.625c-3.641,-2.77 -5.982,-5.918 -8,-10c-0.273,-2.677 -0.394,-5.128 -0.371,-7.801c-0.017,-1.551 -0.035,-3.103 -0.053,-4.654c-0.01,-2.411 -0.014,-4.821 -0.012,-7.232c-0.022,-14.265 -1.427,-27.921 -8.377,-40.688c-0.52,-0.992 -0.52,-0.992 -1.051,-2.005c-11.77,-21.996 -30.233,-37.583 -54.199,-44.995c-11.89,-3.449 -24.759,-2.782 -37.04,-2.802c-1.68,-0.006 -3.361,-0.013 -5.041,-0.02c-5.469,-0.021 -10.938,-0.031 -16.407,-0.041c-1.896,-0.004 -3.791,-0.008 -5.687,-0.012c-8.906,-0.019 -17.812,-0.033 -26.718,-0.042c-10.231,-0.01 -20.461,-0.036 -30.691,-0.077c-7.944,-0.03 -15.889,-0.045 -23.833,-0.048c-4.729,-0.002 -9.457,-0.011 -14.186,-0.036c-4.451,-0.023 -8.902,-0.027 -13.354,-0.017c-1.62,0 -3.241,-0.006 -4.861,-0.02c-13.777,-0.111 -27.178,1.599 -39.493,8.303c-0.662,0.347 -1.323,0.694 -2.005,1.051c-21.629,11.574 -37.253,29.378 -44.782,52.742c-2.767,10.326 -3.412,19.917 -3.356,30.572c-0.005,1.76 -0.013,3.519 -0.021,5.279c-0.018,4.729 -0.011,9.459 0.002,14.188c0.01,4.98 0.001,9.96 -0.006,14.94c-0.007,8.358 0.002,16.717 0.021,25.075c0.022,9.625 0.015,19.25 -0.007,28.875c-0.018,8.305 -0.021,16.611 -0.01,24.916c0.006,4.942 0.007,9.884 -0.006,14.827c-0.012,4.649 -0.003,9.298 0.02,13.947c0.005,1.693 0.004,3.386 -0.005,5.079c-0.119,24.911 8.44,47.289 25.531,65.697c18.602,17.81 40.506,25.327 65.94,25.259c1.711,0.003 3.422,0.006 5.133,0.011c4.628,0.009 9.257,0.006 13.885,-0.001c4.862,-0.005 9.723,-0 14.585,0.003c8.169,0.004 16.338,-0.001 24.507,-0.011c9.412,-0.011 18.823,-0.007 28.235,0.004c8.107,0.009 16.213,0.01 24.32,0.005c4.83,-0.003 9.66,-0.004 14.49,0.003c4.549,0.006 9.098,0.002 13.647,-0.01c1.658,-0.003 3.316,-0.002 4.974,0.003c15.263,0.037 29.139,-0.903 43.285,-7.265c0.985,-0.42 1.97,-0.84 2.984,-1.273c20.063,-9.182 35.958,-26.802 43.808,-47.371c4.42,-12.279 5.775,-23.069 5.694,-36.055c-0.018,-2.872 -0.01,-5.743 0.004,-8.616c0.025,-6.082 0.02,-12.165 0.01,-18.247c-0.012,-7.087 -0.01,-14.173 0.024,-21.26c0.007,-2.822 -0.01,-5.643 -0.027,-8.465c0.006,-1.73 0.013,-3.461 0.021,-5.191c-0.011,-0.778 -0.023,-1.555 -0.034,-2.357c0.058,-5.213 1.252,-8.133 4.517,-12.164c3.643,-3.439 6.591,-3.618 11.453,-3.496c4.217,0.821 6.824,3.281 9.547,6.496c1.519,3.037 1.156,6.196 1.161,9.529c0.005,0.778 0.01,1.555 0.015,2.357c0.015,2.588 0.021,5.175 0.027,7.763c0.006,1.81 0.012,3.62 0.017,5.43c0.011,3.812 0.016,7.623 0.02,11.435c0.005,4.827 0.029,9.654 0.058,14.482c0.019,3.751 0.024,7.502 0.025,11.254c0.003,1.775 0.011,3.551 0.024,5.326c0.248,35.624 -10.076,66.747 -35.348,92.425c-15.91,15.94 -36.129,25.51 -58,30c-0.647,0.166 -1.293,0.333 -1.96,0.504c-8.331,1.987 -16.693,1.792 -25.198,1.786c-1.723,0.006 -3.445,0.013 -5.168,0.02c-4.658,0.018 -9.315,0.022 -13.973,0.024c-2.92,0.001 -5.84,0.006 -8.76,0.011c-10.216,0.018 -20.431,0.027 -30.647,0.025c-9.474,-0.001 -18.947,0.02 -28.421,0.051c-8.17,0.026 -16.341,0.037 -24.511,0.036c-4.863,-0.001 -9.726,0.005 -14.589,0.026c-38.962,0.159 -38.962,0.159 -54.774,-4.484c-0.648,-0.19 -1.295,-0.38 -1.963,-0.575c-13.62,-4.053 -27.384,-10.942 -38.037,-20.425c-0.953,-0.822 -1.905,-1.645 -2.887,-2.492c-6.778,-5.949 -12.704,-12.262 -18.113,-19.508c-0.677,-0.9 -1.354,-1.8 -2.051,-2.727c-15.134,-21.335 -20.258,-45.207 -20.24,-70.885c-0.006,-1.723 -0.013,-3.447 -0.02,-5.17c-0.018,-4.641 -0.022,-9.282 -0.024,-13.923c-0.001,-2.911 -0.006,-5.822 -0.011,-8.734c-0.018,-10.19 -0.027,-20.38 -0.025,-30.569c0.001,-9.444 -0.02,-18.888 -0.051,-28.332c-0.026,-8.153 -0.037,-16.307 -0.036,-24.46c0.001,-4.85 -0.005,-9.699 -0.026,-14.549c-0.159,-38.819 -0.159,-38.819 4.484,-54.652c0.19,-0.648 0.38,-1.296 0.575,-1.963c4.06,-13.645 10.962,-27.339 20.425,-38.037c0.675,-0.794 1.351,-1.588 2.047,-2.406c16.957,-19.482 38.503,-33.385 63.953,-38.594c0.788,-0.167 1.575,-0.334 2.387,-0.505c9.042,-1.728 17.933,-1.778 27.093,-1.753Z" style="fill:#030303;fill-rule:nonzero;"/><path d="M260,160c4.48,2.282 6.814,4.51 9,9c0.378,3.191 0.378,3.191 0.381,6.863c0.005,0.678 0.009,1.356 0.014,2.054c0.012,2.265 0.002,4.529 -0.007,6.794c0.004,1.626 0.009,3.253 0.016,4.879c0.014,4.413 0.008,8.826 -0.001,13.24c-0.008,4.62 -0.001,9.241 0.004,13.861c0.005,7.76 -0.002,15.52 -0.016,23.28c-0.016,8.968 -0.011,17.935 0.005,26.903c0.014,7.702 0.016,15.404 0.008,23.106c-0.005,4.599 -0.005,9.198 0.005,13.797c0.009,4.325 0.003,8.649 -0.015,12.974c-0.004,1.586 -0.003,3.172 0.004,4.758c0.008,2.168 -0.002,4.335 -0.017,6.502c-0.001,1.212 -0.002,2.424 -0.003,3.673c-0.546,4.797 -2.299,8.075 -5.44,11.692c-4.306,2.382 -8.128,2.518 -12.938,1.625c-3.336,-1.665 -5.438,-3.891 -7.14,-7.247c-1.038,-3.322 -1.118,-6.134 -1.128,-9.616c-0.005,-0.678 -0.009,-1.356 -0.014,-2.054c-0.013,-2.265 -0.011,-4.529 -0.009,-6.794c-0.006,-1.626 -0.013,-3.253 -0.02,-4.879c-0.018,-4.413 -0.022,-8.826 -0.024,-13.24c-0.001,-2.758 -0.006,-5.516 -0.011,-8.273c-0.018,-9.623 -0.027,-19.245 -0.025,-28.867c0.001,-8.968 -0.02,-17.935 -0.051,-26.903c-0.026,-7.702 -0.037,-15.404 -0.036,-23.106c0.001,-4.599 -0.005,-9.198 -0.026,-13.797c-0.019,-4.325 -0.02,-8.649 -0.005,-12.974c0.002,-1.586 -0.003,-3.172 -0.015,-4.758c-0.015,-2.168 -0.006,-4.334 0.009,-6.502c-0.001,-1.212 -0.002,-2.424 -0.003,-3.673c0.735,-4.9 2.978,-8.05 6.748,-11.192c3.648,-1.493 6.903,-1.804 10.75,-1.125Z" style="fill:#020202;fill-rule:nonzero;"/><path d="M182,205c3.615,1.432 6.564,2.923 9,6c0.98,2.941 1.13,4.849 1.14,7.914c0.009,1.52 0.009,1.52 0.017,3.071c0.001,1.111 0.002,2.222 0.003,3.367c0.005,1.171 0.01,2.342 0.015,3.548c0.012,3.213 0.02,6.426 0.024,9.639c0.003,2.008 0.007,4.017 0.012,6.025c0.014,6.287 0.023,12.573 0.027,18.86c0.004,7.251 0.022,14.503 0.051,21.754c0.022,5.609 0.032,11.217 0.033,16.826c0.001,3.348 0.008,6.696 0.025,10.044c0.017,3.737 0.015,7.473 0.009,11.21c0.009,1.105 0.018,2.21 0.028,3.349c-0.03,5.533 -0.17,9.66 -3.384,14.392c-3.156,2.848 -5.488,4.828 -9.75,5.312c-4.887,-0.47 -7.864,-2.736 -11.062,-6.375c-2.03,-3.313 -2.318,-6.044 -2.348,-9.838c-0.01,-1.011 -0.02,-2.021 -0.03,-3.063c-0.006,-1.108 -0.012,-2.216 -0.018,-3.358c-0.01,-1.168 -0.02,-2.336 -0.03,-3.539c-0.03,-3.874 -0.051,-7.747 -0.07,-11.621c-0.003,-0.66 -0.007,-1.32 -0.01,-1.999c-0.031,-6.227 -0.057,-12.454 -0.074,-18.681c-0.022,-7.954 -0.064,-15.906 -0.133,-23.86c-0.047,-5.598 -0.072,-11.197 -0.079,-16.795c-0.005,-3.341 -0.023,-6.68 -0.06,-10.021c-0.039,-3.732 -0.04,-7.463 -0.032,-11.195c-0.02,-1.098 -0.04,-2.196 -0.061,-3.327c0.061,-6.468 1.06,-10.236 5.274,-15.214c3.303,-3.178 7.153,-2.887 11.483,-2.427Z" style="fill:#040404;fill-rule:nonzero;"/><path d="M338,257c3.316,2.1 6.228,4.456 8,8c0.107,2.184 0.149,4.371 0.161,6.558c0.005,0.673 0.01,1.347 0.015,2.041c0.015,2.233 0.021,4.466 0.027,6.699c0.006,1.552 0.012,3.104 0.017,4.657c0.011,3.258 0.016,6.517 0.02,9.775c0.005,4.167 0.029,8.334 0.058,12.502c0.019,3.209 0.024,6.417 0.025,9.626c0.003,1.536 0.011,3.071 0.024,4.607c0.017,2.154 0.015,4.308 0.009,6.462c0.004,1.224 0.007,2.448 0.011,3.71c-0.525,4.805 -2.281,8.075 -5.367,11.741c-4.593,2.488 -8.909,2.758 -14,1.625c-3.658,-2.671 -5.582,-5.745 -7,-10c-0.105,-2.227 -0.149,-4.457 -0.161,-6.687c-0.005,-0.675 -0.01,-1.35 -0.015,-2.046c-0.015,-2.232 -0.021,-4.464 -0.027,-6.697c-0.006,-1.553 -0.012,-3.106 -0.017,-4.659c-0.011,-3.257 -0.016,-6.513 -0.02,-9.77c-0.005,-4.169 -0.03,-8.337 -0.058,-12.505c-0.019,-3.209 -0.024,-6.417 -0.025,-9.626c-0.003,-1.537 -0.011,-3.073 -0.024,-4.61c-0.017,-2.152 -0.015,-4.303 -0.009,-6.455c-0.004,-1.223 -0.007,-2.447 -0.011,-3.707c0.54,-4.757 2.706,-8.187 6.367,-11.239c4.211,-1.404 7.728,-1.174 12,0Z" style="fill:#040404;fill-rule:nonzero;"/></svg>